M48
; DRILL file {KiCad (5.1.12)-1} date 12/26/21 23:17:45
; FORMAT={2:4/ absolute / inch / suppress leading zeros}
; #@! TF.CreationDate,2021-12-26T23:17:45+01:00
; #@! TF.GenerationSoftware,Kicad,Pcbnew,(5.1.12)-1
; #@! TF.FileFunction,Plated,1,2,PTH
FMAT,2
INCH,TZ
T1C0.0157
%
G90
G05
T1
X-16476Y-3819
X-16122Y-7283
X-15453Y-7283
X-15226Y-4990
X-14970Y-2992
X-14783Y-2461
X-14783Y-8996
X-14114Y-8150
X-14035Y-1299
X-13479Y-7269
X-13445Y-8150
X-12874Y-3386
X-12874Y-9232
X-12269Y-8666
X-11821Y-3976
X-11693Y-4419
X-11358Y-2205
X-11358Y-2854
X-11358Y-8071
X-11260Y-6280
X-10945Y-9134
X-10906Y-5728
X-10709Y-8366
X-10443Y-4498
X-9862Y-2047
X-9764Y-9587
X-9449Y-925
X-9291Y-364
X-9222Y-5630
X-9213Y-4941
X-9213Y-9587
X-8996Y-8996
X-8878Y-2067
X-8661Y-9587
X-8622Y-8110
X-8307Y-3386
X-8209Y-6742
X-6929Y-1693
X-6634Y-3287
X-6614Y-3740
X-6457Y-1693
X-6378Y-4094
X-6048Y-3430
X-5955Y-9783
X-5709Y-551
X-5630Y-7205
X-5512Y-5512
X-5472Y-3110
X-5226Y-4872
X-4951Y-3396
X-4931Y-5197
X-4882Y-7707
X-4567Y-4528
X-4488Y-6024
X-4390Y-1378
X-2451Y-9675
X-2244Y-5984
X-2087Y-4252
X-1732Y-8228
X-1673Y-1102
X-1555Y-571
X-1457Y-3228
X-984Y-8268
X-482Y-4274
X-451Y-7817
T0
M30
