G04 #@! TF.GenerationSoftware,KiCad,Pcbnew,(5.1.12)-1*
G04 #@! TF.CreationDate,2021-12-26T23:17:16+01:00*
G04 #@! TF.ProjectId,005032,30303530-3332-42e6-9b69-6361645f7063,v5*
G04 #@! TF.SameCoordinates,PX88601c0PY4692680*
G04 #@! TF.FileFunction,Copper,L2,Bot*
G04 #@! TF.FilePolarity,Positive*
%FSLAX46Y46*%
G04 Gerber Fmt 4.6, Leading zero omitted, Abs format (unit mm)*
G04 Created by KiCad (PCBNEW (5.1.12)-1) date 2021-12-26 23:17:16*
%MOMM*%
%LPD*%
G01*
G04 APERTURE LIST*
G04 #@! TA.AperFunction,NonConductor*
%ADD10C,0.150000*%
G04 #@! TD*
G04 #@! TA.AperFunction,NonConductor*
%ADD11C,0.200000*%
G04 #@! TD*
G04 #@! TA.AperFunction,NonConductor*
%ADD12C,0.250000*%
G04 #@! TD*
%ADD13C,0.150000*%
G04 #@! TA.AperFunction,SMDPad,CuDef*
%ADD14C,2.000000*%
G04 #@! TD*
G04 #@! TA.AperFunction,SMDPad,CuDef*
%ADD15R,4.750000X1.200000*%
G04 #@! TD*
G04 #@! TA.AperFunction,SMDPad,CuDef*
%ADD16R,0.650000X2.770000*%
G04 #@! TD*
G04 #@! TA.AperFunction,ViaPad*
%ADD17C,1.200000*%
G04 #@! TD*
G04 #@! TA.AperFunction,ViaPad*
%ADD18C,0.800000*%
G04 #@! TD*
G04 #@! TA.AperFunction,Conductor*
%ADD19C,0.500000*%
G04 #@! TD*
G04 #@! TA.AperFunction,Conductor*
%ADD20C,0.250000*%
G04 #@! TD*
G04 #@! TA.AperFunction,Conductor*
%ADD21C,0.254000*%
G04 #@! TD*
G04 #@! TA.AperFunction,Conductor*
%ADD22C,0.100000*%
G04 #@! TD*
G04 APERTURE END LIST*
D10*
X-1171429Y-13886904D02*
X-1171429Y-13086904D01*
X-1476191Y-13086904D01*
X-1552381Y-13125000D01*
X-1590477Y-13163095D01*
X-1628572Y-13239285D01*
X-1628572Y-13353571D01*
X-1590477Y-13429761D01*
X-1552381Y-13467857D01*
X-1476191Y-13505952D01*
X-1171429Y-13505952D01*
X-2428572Y-13886904D02*
X-2161905Y-13505952D01*
X-1971429Y-13886904D02*
X-1971429Y-13086904D01*
X-2276191Y-13086904D01*
X-2352381Y-13125000D01*
X-2390477Y-13163095D01*
X-2428572Y-13239285D01*
X-2428572Y-13353571D01*
X-2390477Y-13429761D01*
X-2352381Y-13467857D01*
X-2276191Y-13505952D01*
X-1971429Y-13505952D01*
X-2923810Y-13086904D02*
X-3076191Y-13086904D01*
X-3152381Y-13125000D01*
X-3228572Y-13201190D01*
X-3266667Y-13353571D01*
X-3266667Y-13620238D01*
X-3228572Y-13772619D01*
X-3152381Y-13848809D01*
X-3076191Y-13886904D01*
X-2923810Y-13886904D01*
X-2847620Y-13848809D01*
X-2771429Y-13772619D01*
X-2733334Y-13620238D01*
X-2733334Y-13353571D01*
X-2771429Y-13201190D01*
X-2847620Y-13125000D01*
X-2923810Y-13086904D01*
X-4028572Y-13125000D02*
X-3952381Y-13086904D01*
X-3838096Y-13086904D01*
X-3723810Y-13125000D01*
X-3647620Y-13201190D01*
X-3609524Y-13277380D01*
X-3571429Y-13429761D01*
X-3571429Y-13544047D01*
X-3609524Y-13696428D01*
X-3647620Y-13772619D01*
X-3723810Y-13848809D01*
X-3838096Y-13886904D01*
X-3914286Y-13886904D01*
X-4028572Y-13848809D01*
X-4066667Y-13810714D01*
X-4066667Y-13544047D01*
X-3914286Y-13544047D01*
X-885715Y-14817857D02*
X-1152381Y-14817857D01*
X-1266667Y-15236904D02*
X-885715Y-15236904D01*
X-885715Y-14436904D01*
X-1266667Y-14436904D01*
X-1571429Y-15198809D02*
X-1685715Y-15236904D01*
X-1876191Y-15236904D01*
X-1952381Y-15198809D01*
X-1990477Y-15160714D01*
X-2028572Y-15084523D01*
X-2028572Y-15008333D01*
X-1990477Y-14932142D01*
X-1952381Y-14894047D01*
X-1876191Y-14855952D01*
X-1723810Y-14817857D01*
X-1647620Y-14779761D01*
X-1609524Y-14741666D01*
X-1571429Y-14665476D01*
X-1571429Y-14589285D01*
X-1609524Y-14513095D01*
X-1647620Y-14475000D01*
X-1723810Y-14436904D01*
X-1914286Y-14436904D01*
X-2028572Y-14475000D01*
X-2371429Y-15236904D02*
X-2371429Y-14436904D01*
X-2676191Y-14436904D01*
X-2752381Y-14475000D01*
X-2790477Y-14513095D01*
X-2828572Y-14589285D01*
X-2828572Y-14703571D01*
X-2790477Y-14779761D01*
X-2752381Y-14817857D01*
X-2676191Y-14855952D01*
X-2371429Y-14855952D01*
X-3323810Y-14436904D02*
X-3400000Y-14436904D01*
X-3476191Y-14475000D01*
X-3514286Y-14513095D01*
X-3552381Y-14589285D01*
X-3590477Y-14741666D01*
X-3590477Y-14932142D01*
X-3552381Y-15084523D01*
X-3514286Y-15160714D01*
X-3476191Y-15198809D01*
X-3400000Y-15236904D01*
X-3323810Y-15236904D01*
X-3247620Y-15198809D01*
X-3209524Y-15160714D01*
X-3171429Y-15084523D01*
X-3133334Y-14932142D01*
X-3133334Y-14741666D01*
X-3171429Y-14589285D01*
X-3209524Y-14513095D01*
X-3247620Y-14475000D01*
X-3323810Y-14436904D01*
X-3895239Y-14513095D02*
X-3933334Y-14475000D01*
X-4009524Y-14436904D01*
X-4200000Y-14436904D01*
X-4276191Y-14475000D01*
X-4314286Y-14513095D01*
X-4352381Y-14589285D01*
X-4352381Y-14665476D01*
X-4314286Y-14779761D01*
X-3857143Y-15236904D01*
X-4352381Y-15236904D01*
D11*
X-3747620Y-4433333D02*
X-3033334Y-4433333D01*
X-2890477Y-4385714D01*
X-2795239Y-4290476D01*
X-2747620Y-4147619D01*
X-2747620Y-4052380D01*
X-3747620Y-4766666D02*
X-3747620Y-5338095D01*
X-2747620Y-5052380D02*
X-3747620Y-5052380D01*
X-3033334Y-5623809D02*
X-3033334Y-6100000D01*
X-2747620Y-5528571D02*
X-3747620Y-5861904D01*
X-2747620Y-6195238D01*
X-3700000Y-7052380D02*
X-3747620Y-6957142D01*
X-3747620Y-6814285D01*
X-3700000Y-6671428D01*
X-3604762Y-6576190D01*
X-3509524Y-6528571D01*
X-3319048Y-6480952D01*
X-3176191Y-6480952D01*
X-2985715Y-6528571D01*
X-2890477Y-6576190D01*
X-2795239Y-6671428D01*
X-2747620Y-6814285D01*
X-2747620Y-6909523D01*
X-2795239Y-7052380D01*
X-2842858Y-7100000D01*
X-3176191Y-7100000D01*
X-3176191Y-6909523D01*
D12*
X-42297620Y-883333D02*
X-42297620Y-978571D01*
X-42250000Y-1073809D01*
X-42202381Y-1121428D01*
X-42107143Y-1169047D01*
X-41916667Y-1216666D01*
X-41678572Y-1216666D01*
X-41488096Y-1169047D01*
X-41392858Y-1121428D01*
X-41345239Y-1073809D01*
X-41297620Y-978571D01*
X-41297620Y-883333D01*
X-41345239Y-788095D01*
X-41392858Y-740476D01*
X-41488096Y-692857D01*
X-41678572Y-645238D01*
X-41916667Y-645238D01*
X-42107143Y-692857D01*
X-42202381Y-740476D01*
X-42250000Y-788095D01*
X-42297620Y-883333D01*
X-42297620Y-1835714D02*
X-42297620Y-1930952D01*
X-42250000Y-2026190D01*
X-42202381Y-2073809D01*
X-42107143Y-2121428D01*
X-41916667Y-2169047D01*
X-41678572Y-2169047D01*
X-41488096Y-2121428D01*
X-41392858Y-2073809D01*
X-41345239Y-2026190D01*
X-41297620Y-1930952D01*
X-41297620Y-1835714D01*
X-41345239Y-1740476D01*
X-41392858Y-1692857D01*
X-41488096Y-1645238D01*
X-41678572Y-1597619D01*
X-41916667Y-1597619D01*
X-42107143Y-1645238D01*
X-42202381Y-1692857D01*
X-42250000Y-1740476D01*
X-42297620Y-1835714D01*
X-42297620Y-3073809D02*
X-42297620Y-2597619D01*
X-41821429Y-2550000D01*
X-41869048Y-2597619D01*
X-41916667Y-2692857D01*
X-41916667Y-2930952D01*
X-41869048Y-3026190D01*
X-41821429Y-3073809D01*
X-41726191Y-3121428D01*
X-41488096Y-3121428D01*
X-41392858Y-3073809D01*
X-41345239Y-3026190D01*
X-41297620Y-2930952D01*
X-41297620Y-2692857D01*
X-41345239Y-2597619D01*
X-41392858Y-2550000D01*
X-42297620Y-3740476D02*
X-42297620Y-3835714D01*
X-42250000Y-3930952D01*
X-42202381Y-3978571D01*
X-42107143Y-4026190D01*
X-41916667Y-4073809D01*
X-41678572Y-4073809D01*
X-41488096Y-4026190D01*
X-41392858Y-3978571D01*
X-41345239Y-3930952D01*
X-41297620Y-3835714D01*
X-41297620Y-3740476D01*
X-41345239Y-3645238D01*
X-41392858Y-3597619D01*
X-41488096Y-3550000D01*
X-41678572Y-3502380D01*
X-41916667Y-3502380D01*
X-42107143Y-3550000D01*
X-42202381Y-3597619D01*
X-42250000Y-3645238D01*
X-42297620Y-3740476D01*
X-42297620Y-4407142D02*
X-42297620Y-5026190D01*
X-41916667Y-4692857D01*
X-41916667Y-4835714D01*
X-41869048Y-4930952D01*
X-41821429Y-4978571D01*
X-41726191Y-5026190D01*
X-41488096Y-5026190D01*
X-41392858Y-4978571D01*
X-41345239Y-4930952D01*
X-41297620Y-4835714D01*
X-41297620Y-4550000D01*
X-41345239Y-4454761D01*
X-41392858Y-4407142D01*
X-42202381Y-5407142D02*
X-42250000Y-5454761D01*
X-42297620Y-5550000D01*
X-42297620Y-5788095D01*
X-42250000Y-5883333D01*
X-42202381Y-5930952D01*
X-42107143Y-5978571D01*
X-42011905Y-5978571D01*
X-41869048Y-5930952D01*
X-41297620Y-5359523D01*
X-41297620Y-5978571D01*
X-41964286Y-7073809D02*
X-41297620Y-7311904D01*
X-41964286Y-7550000D01*
X-42297620Y-8407142D02*
X-42297620Y-7930952D01*
X-41821429Y-7883333D01*
X-41869048Y-7930952D01*
X-41916667Y-8026190D01*
X-41916667Y-8264285D01*
X-41869048Y-8359523D01*
X-41821429Y-8407142D01*
X-41726191Y-8454761D01*
X-41488096Y-8454761D01*
X-41392858Y-8407142D01*
X-41345239Y-8359523D01*
X-41297620Y-8264285D01*
X-41297620Y-8026190D01*
X-41345239Y-7930952D01*
X-41392858Y-7883333D01*
D13*
X-39336905Y-2709523D02*
X-39336905Y-2252380D01*
X-40136905Y-2480952D02*
X-39336905Y-2480952D01*
X-40136905Y-1985714D02*
X-39336905Y-1985714D01*
X-39336905Y-1680952D01*
X-39375000Y-1604761D01*
X-39413096Y-1566666D01*
X-39489286Y-1528571D01*
X-39603572Y-1528571D01*
X-39679762Y-1566666D01*
X-39717858Y-1604761D01*
X-39755953Y-1680952D01*
X-39755953Y-1985714D01*
X-40136905Y-766666D02*
X-40136905Y-1223809D01*
X-40136905Y-995238D02*
X-39336905Y-995238D01*
X-39451191Y-1071428D01*
X-39527381Y-1147619D01*
X-39565477Y-1223809D01*
X-12685715Y-22552380D02*
X-12114286Y-22552380D01*
X-12400000Y-22552380D02*
X-12400000Y-21552380D01*
X-12304762Y-21695238D01*
X-12209524Y-21790476D01*
X-12114286Y-21838095D01*
X-12085715Y-5252380D02*
X-11514286Y-5252380D01*
X-11800000Y-5252380D02*
X-11800000Y-4252380D01*
X-11704762Y-4395238D01*
X-11609524Y-4490476D01*
X-11514286Y-4538095D01*
X-40290477Y-13513904D02*
X-40747620Y-13513904D01*
X-40519048Y-14313904D02*
X-40519048Y-13513904D01*
X-41014286Y-14313904D02*
X-41014286Y-13513904D01*
X-41319048Y-13513904D01*
X-41395239Y-13552000D01*
X-41433334Y-13590095D01*
X-41471429Y-13666285D01*
X-41471429Y-13780571D01*
X-41433334Y-13856761D01*
X-41395239Y-13894857D01*
X-41319048Y-13932952D01*
X-41014286Y-13932952D01*
X-41776191Y-13590095D02*
X-41814286Y-13552000D01*
X-41890477Y-13513904D01*
X-42080953Y-13513904D01*
X-42157143Y-13552000D01*
X-42195239Y-13590095D01*
X-42233334Y-13666285D01*
X-42233334Y-13742476D01*
X-42195239Y-13856761D01*
X-41738096Y-14313904D01*
X-42233334Y-14313904D01*
X-40290477Y-22609904D02*
X-40747620Y-22609904D01*
X-40519048Y-23409904D02*
X-40519048Y-22609904D01*
X-41014286Y-23409904D02*
X-41014286Y-22609904D01*
X-41319048Y-22609904D01*
X-41395239Y-22648000D01*
X-41433334Y-22686095D01*
X-41471429Y-22762285D01*
X-41471429Y-22876571D01*
X-41433334Y-22952761D01*
X-41395239Y-22990857D01*
X-41319048Y-23028952D01*
X-41014286Y-23028952D01*
X-41738096Y-22609904D02*
X-42233334Y-22609904D01*
X-41966667Y-22914666D01*
X-42080953Y-22914666D01*
X-42157143Y-22952761D01*
X-42195239Y-22990857D01*
X-42233334Y-23067047D01*
X-42233334Y-23257523D01*
X-42195239Y-23333714D01*
X-42157143Y-23371809D01*
X-42080953Y-23409904D01*
X-41852381Y-23409904D01*
X-41776191Y-23371809D01*
X-41738096Y-23333714D01*
X-38090477Y-3386904D02*
X-38547620Y-3386904D01*
X-38319048Y-4186904D02*
X-38319048Y-3386904D01*
X-38814286Y-4186904D02*
X-38814286Y-3386904D01*
X-39119048Y-3386904D01*
X-39195239Y-3425000D01*
X-39233334Y-3463095D01*
X-39271429Y-3539285D01*
X-39271429Y-3653571D01*
X-39233334Y-3729761D01*
X-39195239Y-3767857D01*
X-39119048Y-3805952D01*
X-38814286Y-3805952D01*
X-39957143Y-3653571D02*
X-39957143Y-4186904D01*
X-39766667Y-3348809D02*
X-39576191Y-3920238D01*
X-40071429Y-3920238D01*
X-37490477Y-10311904D02*
X-37947620Y-10311904D01*
X-37719048Y-11111904D02*
X-37719048Y-10311904D01*
X-38214286Y-11111904D02*
X-38214286Y-10311904D01*
X-38519048Y-10311904D01*
X-38595239Y-10350000D01*
X-38633334Y-10388095D01*
X-38671429Y-10464285D01*
X-38671429Y-10578571D01*
X-38633334Y-10654761D01*
X-38595239Y-10692857D01*
X-38519048Y-10730952D01*
X-38214286Y-10730952D01*
X-39395239Y-10311904D02*
X-39014286Y-10311904D01*
X-38976191Y-10692857D01*
X-39014286Y-10654761D01*
X-39090477Y-10616666D01*
X-39280953Y-10616666D01*
X-39357143Y-10654761D01*
X-39395239Y-10692857D01*
X-39433334Y-10769047D01*
X-39433334Y-10959523D01*
X-39395239Y-11035714D01*
X-39357143Y-11073809D01*
X-39280953Y-11111904D01*
X-39090477Y-11111904D01*
X-39014286Y-11073809D01*
X-38976191Y-11035714D01*
X-27165477Y-611904D02*
X-27622620Y-611904D01*
X-27394048Y-1411904D02*
X-27394048Y-611904D01*
X-27889286Y-1411904D02*
X-27889286Y-611904D01*
X-28194048Y-611904D01*
X-28270239Y-650000D01*
X-28308334Y-688095D01*
X-28346429Y-764285D01*
X-28346429Y-878571D01*
X-28308334Y-954761D01*
X-28270239Y-992857D01*
X-28194048Y-1030952D01*
X-27889286Y-1030952D01*
X-29032143Y-611904D02*
X-28879762Y-611904D01*
X-28803572Y-650000D01*
X-28765477Y-688095D01*
X-28689286Y-802380D01*
X-28651191Y-954761D01*
X-28651191Y-1259523D01*
X-28689286Y-1335714D01*
X-28727381Y-1373809D01*
X-28803572Y-1411904D01*
X-28955953Y-1411904D01*
X-29032143Y-1373809D01*
X-29070239Y-1335714D01*
X-29108334Y-1259523D01*
X-29108334Y-1069047D01*
X-29070239Y-992857D01*
X-29032143Y-954761D01*
X-28955953Y-916666D01*
X-28803572Y-916666D01*
X-28727381Y-954761D01*
X-28689286Y-992857D01*
X-28651191Y-1069047D01*
X-18565477Y-611904D02*
X-19022620Y-611904D01*
X-18794048Y-1411904D02*
X-18794048Y-611904D01*
X-19289286Y-1411904D02*
X-19289286Y-611904D01*
X-19594048Y-611904D01*
X-19670239Y-650000D01*
X-19708334Y-688095D01*
X-19746429Y-764285D01*
X-19746429Y-878571D01*
X-19708334Y-954761D01*
X-19670239Y-992857D01*
X-19594048Y-1030952D01*
X-19289286Y-1030952D01*
X-20013096Y-611904D02*
X-20546429Y-611904D01*
X-20203572Y-1411904D01*
D14*
X-37700000Y-1700000D03*
D15*
X-9375000Y-22140000D03*
X-3625000Y-22140000D03*
X-9375000Y-19600000D03*
X-3625000Y-19600000D03*
X-9375000Y-17060000D03*
X-3625000Y-17060000D03*
D16*
X-10440000Y-3700000D03*
X-10440000Y-7700000D03*
X-9170000Y-3700000D03*
X-9170000Y-7700000D03*
X-7900000Y-3700000D03*
X-7900000Y-7700000D03*
X-6630000Y-3700000D03*
X-6630000Y-7700000D03*
X-5360000Y-3700000D03*
X-5360000Y-7700000D03*
D14*
X-41300000Y-15950000D03*
X-41300000Y-21050000D03*
X-39100000Y-5800000D03*
X-39100000Y-8800000D03*
X-25550000Y-1650000D03*
X-22000000Y-1650000D03*
D17*
X-35650000Y-3300000D03*
X-41850000Y-9700000D03*
X-27200000Y-21250000D03*
X-35850000Y-20700000D03*
X-38675000Y-12675000D03*
X-31162500Y-22012500D03*
X-1225000Y-10855000D03*
X-5300000Y-10800000D03*
X-21100000Y-8600000D03*
X-1145000Y-19855000D03*
X-11600000Y-11500000D03*
X-11400000Y-15300000D03*
X-5700000Y-15200000D03*
X-32700000Y-8600000D03*
X-28600000Y-15950000D03*
X-28850000Y-20500000D03*
X-20849999Y-17124999D03*
X-34150000Y-20700000D03*
X-24800000Y-24350000D03*
X-22000000Y-24350000D03*
X-23400000Y-24350000D03*
X-3950000Y-1450000D03*
X-14500000Y-1400000D03*
X-21900000Y-20600000D03*
X-34237500Y-18462500D03*
X-2500000Y-21000002D03*
X-11150000Y-3500000D03*
D18*
X-27800000Y-23200000D03*
X-32700000Y-23450000D03*
X-4400000Y-20900000D03*
X-4250000Y-2800000D03*
X-3700000Y-8200000D03*
X-14300000Y-18300000D03*
X-23400000Y-12550000D03*
X-26525000Y-11425000D03*
X-12400000Y-19575000D03*
X-14000000Y-14000000D03*
X-28850000Y-5600000D03*
X-15362653Y-8712653D03*
X-16850000Y-8350000D03*
X-28850000Y-7250000D03*
X-15125000Y-24850000D03*
X-27700000Y-14550000D03*
X-23425000Y-14300000D03*
X-6225000Y-24575000D03*
X-37550000Y-22850000D03*
X-22850000Y-22850000D03*
X-13900000Y-7900000D03*
X-22550000Y-5250000D03*
X-23600000Y-925000D03*
X-12575000Y-8625000D03*
X-25050000Y-5200000D03*
X-24000000Y-2350000D03*
X-16400000Y-4300000D03*
X-16800000Y-9500000D03*
X-16200000Y-10400000D03*
X-17600000Y-4300000D03*
X-37550000Y-6250000D03*
X-38025000Y-7600000D03*
X-30025000Y-10100000D03*
X-13275000Y-12375000D03*
X-12525000Y-13200000D03*
X-29700000Y-11225000D03*
X-40950000Y-18500000D03*
X-39250000Y-18500000D03*
D19*
X-36100000Y-3300000D02*
X-37700000Y-1700000D01*
X-35650000Y-3300000D02*
X-36100000Y-3300000D01*
X-41850000Y-10000000D02*
X-41850000Y-9700000D01*
X-27200000Y-21250000D02*
X-27750000Y-21800000D01*
X-27750000Y-21800000D02*
X-30850000Y-21800000D01*
X-35850000Y-20950000D02*
X-35000000Y-21800000D01*
X-35000000Y-21800000D02*
X-30850000Y-21800000D01*
X-38675000Y-12675000D02*
X-38700000Y-12650000D01*
X-35850000Y-20700000D02*
X-35850000Y-20950000D01*
X-41850000Y-10825000D02*
X-41850000Y-9700000D01*
X-40000000Y-12675000D02*
X-41850000Y-10825000D01*
X-38675000Y-12675000D02*
X-40000000Y-12675000D01*
X-30850000Y-21800000D02*
X-31162500Y-22012500D01*
X-36250000Y-21100000D02*
X-35850000Y-20700000D01*
X-36250000Y-21250000D02*
X-36250000Y-21100000D01*
X-27500000Y-22250000D02*
X-35250000Y-22250000D01*
X-27200000Y-21950000D02*
X-27500000Y-22250000D01*
X-35250000Y-22250000D02*
X-36250000Y-21250000D01*
X-27200000Y-21250000D02*
X-27200000Y-21950000D01*
X-5360000Y-3700000D02*
X-6630000Y-3700000D01*
X-9170000Y-3700000D02*
X-7900000Y-3700000D01*
X-5245000Y-10855000D02*
X-5300000Y-10800000D01*
X-1225000Y-10855000D02*
X-5245000Y-10855000D01*
X-1225000Y-1900000D02*
X-1225000Y-10855000D01*
X-34300000Y-11100000D02*
X-31000000Y-14400000D01*
X-34300000Y-9400000D02*
X-34300000Y-11100000D01*
X-33500000Y-8600000D02*
X-34300000Y-9400000D01*
X-1200000Y-19800000D02*
X-1145000Y-19855000D01*
X-3625000Y-19800000D02*
X-1200000Y-19800000D01*
X-11600000Y-11500000D02*
X-6600000Y-11500000D01*
X-5900000Y-10800000D02*
X-5300000Y-10800000D01*
X-6600000Y-11500000D02*
X-5900000Y-10800000D01*
X-11600000Y-15100000D02*
X-11400000Y-15300000D01*
X-11600000Y-11500000D02*
X-11600000Y-15100000D01*
X-6600000Y-14300000D02*
X-5700000Y-15200000D01*
X-6600000Y-11500000D02*
X-6600000Y-14300000D01*
X-32700000Y-8600000D02*
X-33500000Y-8600000D01*
X-21100000Y-8600000D02*
X-32700000Y-8600000D01*
X-30600000Y-15950000D02*
X-31000000Y-15550000D01*
X-28600000Y-15950000D02*
X-30600000Y-15950000D01*
X-31000000Y-14400000D02*
X-31000000Y-15550000D01*
X-20950000Y-8600000D02*
X-21100000Y-8600000D01*
X-21100000Y-8600000D02*
X-19300000Y-8600000D01*
X-16400000Y-11500000D02*
X-16300000Y-11500000D01*
X-19300000Y-8600000D02*
X-16400000Y-11500000D01*
X-11600000Y-11500000D02*
X-16300000Y-11500000D01*
X-20849999Y-21349999D02*
X-20849999Y-17124999D01*
X-28800000Y-20450000D02*
X-28850000Y-20500000D01*
X-28600000Y-15950000D02*
X-23700000Y-15950000D01*
X-23700000Y-15950000D02*
X-23400000Y-16250000D01*
X-21724998Y-16250000D02*
X-20849999Y-17124999D01*
X-23400000Y-16250000D02*
X-21724998Y-16250000D01*
X-29050000Y-20700000D02*
X-28850000Y-20500000D01*
X-34150000Y-20700000D02*
X-29050000Y-20700000D01*
X-24800000Y-24350000D02*
X-23200000Y-24350000D01*
X-23200000Y-24350000D02*
X-22000000Y-24350000D01*
X-22100000Y-24250000D02*
X-22000000Y-24350000D01*
X-23200000Y-24350000D02*
X-23400000Y-24350000D01*
X-1675000Y-1450000D02*
X-1225000Y-1900000D01*
X-3950000Y-1450000D02*
X-1675000Y-1450000D01*
X-7250000Y-1950000D02*
X-7250000Y-3700000D01*
X-7250000Y-3700000D02*
X-7900000Y-3700000D01*
X-6630000Y-3700000D02*
X-7250000Y-3700000D01*
X-14450000Y-1450000D02*
X-14500000Y-1400000D01*
X-7250000Y-1950000D02*
X-7250000Y-1450000D01*
X-7250000Y-1450000D02*
X-14450000Y-1450000D01*
X-3950000Y-1450000D02*
X-7250000Y-1450000D01*
X-22800000Y-21900000D02*
X-25150000Y-19550000D01*
X-25150000Y-19550000D02*
X-27900000Y-19550000D01*
X-27900000Y-19550000D02*
X-28850000Y-20500000D01*
X-20849999Y-21349999D02*
X-21400000Y-21900000D01*
X-22000000Y-24350000D02*
X-22000000Y-22000000D01*
X-22000000Y-22000000D02*
X-22100000Y-21900000D01*
X-22100000Y-21900000D02*
X-22800000Y-21900000D01*
X-21400000Y-21900000D02*
X-22100000Y-21900000D01*
X-3625000Y-22125002D02*
X-2500000Y-21000002D01*
X-3625000Y-22140000D02*
X-3625000Y-22125002D01*
X-21900000Y-19900000D02*
X-21900000Y-20600000D01*
X-23300000Y-18500000D02*
X-21900000Y-19900000D01*
X-34200000Y-18500000D02*
X-23300000Y-18500000D01*
X-34237500Y-18462500D02*
X-34200000Y-18500000D01*
X-15250000Y-2950000D02*
X-14700000Y-3500000D01*
X-17500000Y-2950000D02*
X-15250000Y-2950000D01*
X-17950000Y-3400000D02*
X-17500000Y-2950000D01*
X-30200000Y-3400000D02*
X-17950000Y-3400000D01*
X-35800000Y-9000000D02*
X-30200000Y-3400000D01*
X-35800000Y-16900000D02*
X-35800000Y-9000000D01*
X-34237500Y-18462500D02*
X-35800000Y-16900000D01*
X-10950000Y-3700000D02*
X-11150000Y-3500000D01*
X-10440000Y-3700000D02*
X-10950000Y-3700000D01*
X-14700000Y-3500000D02*
X-11150000Y-3500000D01*
D20*
X-32700000Y-23450000D02*
X-32450000Y-23200000D01*
X-27800000Y-23200000D02*
X-32450000Y-23200000D01*
X-9375000Y-22140000D02*
X-9375000Y-21875000D01*
X-8400000Y-20900000D02*
X-4400000Y-20900000D01*
X-9375000Y-21875000D02*
X-8400000Y-20900000D01*
X-4400000Y-7900000D02*
X-4400000Y-2950000D01*
X-4100000Y-8200000D02*
X-4400000Y-7900000D01*
X-4400000Y-2950000D02*
X-4250000Y-2800000D01*
X-3700000Y-8200000D02*
X-4100000Y-8200000D01*
X-3625000Y-17060000D02*
X-3625000Y-18025000D01*
X-3625000Y-18025000D02*
X-3900000Y-18300000D01*
X-3900000Y-18300000D02*
X-14300000Y-18300000D01*
X-9415000Y-17100000D02*
X-9375000Y-17060000D01*
X-23400000Y-12550000D02*
X-22475000Y-11625000D01*
X-22475000Y-11625000D02*
X-19375000Y-11625000D01*
X-13940000Y-17060000D02*
X-9375000Y-17060000D01*
X-19375000Y-11625000D02*
X-13940000Y-17060000D01*
X-26525000Y-11425000D02*
X-24950000Y-11425000D01*
X-24950000Y-11425000D02*
X-24600000Y-11075000D01*
X-24600000Y-11075000D02*
X-19025000Y-11075000D01*
X-19025000Y-11075000D02*
X-16100000Y-14000000D01*
X-16100000Y-14000000D02*
X-13975000Y-14000000D01*
X-12375000Y-19600000D02*
X-12400000Y-19575000D01*
X-9375000Y-19600000D02*
X-12375000Y-19600000D01*
X-28850000Y-5600000D02*
X-25900000Y-5600000D01*
X-25900000Y-5600000D02*
X-24850000Y-6650000D01*
X-17425306Y-6650000D02*
X-15362653Y-8712653D01*
X-24850000Y-6650000D02*
X-17425306Y-6650000D01*
X-16850000Y-8350000D02*
X-17800000Y-7400000D01*
X-28700000Y-7400000D02*
X-28850000Y-7250000D01*
X-17800000Y-7400000D02*
X-28700000Y-7400000D01*
X-24300000Y-14550000D02*
X-27700000Y-14550000D01*
X-19150000Y-15700000D02*
X-23150000Y-15700000D01*
X-23150000Y-15700000D02*
X-24300000Y-14550000D01*
X-15125000Y-19725000D02*
X-19150000Y-15700000D01*
X-15125000Y-24850000D02*
X-15125000Y-19725000D01*
X-23425000Y-14300000D02*
X-22475000Y-15250000D01*
X-22475000Y-15250000D02*
X-18950000Y-15250000D01*
X-18950000Y-15250000D02*
X-13375000Y-20825000D01*
X-13375000Y-20825000D02*
X-13375000Y-22273287D01*
X-13375000Y-22273287D02*
X-13375000Y-22725000D01*
X-11525000Y-24575000D02*
X-6225000Y-24575000D01*
X-13375000Y-22725000D02*
X-11525000Y-24575000D01*
X-36150000Y-24250000D02*
X-37550000Y-22850000D01*
X-26600000Y-24250000D02*
X-36150000Y-24250000D01*
X-25200000Y-22850000D02*
X-26600000Y-24250000D01*
X-22850000Y-22850000D02*
X-25200000Y-22850000D01*
X-13900000Y-7900000D02*
X-13900000Y-7250000D01*
X-13900000Y-7250000D02*
X-15850000Y-5300000D01*
X-22500000Y-5300000D02*
X-22550000Y-5250000D01*
X-15850000Y-5300000D02*
X-22500000Y-5300000D01*
X-22725000Y-925000D02*
X-22000000Y-1650000D01*
X-23600000Y-925000D02*
X-22725000Y-925000D01*
X-25050000Y-5200000D02*
X-24200000Y-6050000D01*
X-17000000Y-6050000D02*
X-14425000Y-8625000D01*
X-14425000Y-8625000D02*
X-12575000Y-8625000D01*
X-24200000Y-6050000D02*
X-17000000Y-6050000D01*
X-24850000Y-2350000D02*
X-25550000Y-1650000D01*
X-24000000Y-2350000D02*
X-24850000Y-2350000D01*
X-15800000Y-4300000D02*
X-12400000Y-7700000D01*
X-16400000Y-4300000D02*
X-15800000Y-4300000D01*
X-12400000Y-7700000D02*
X-12100000Y-7700000D01*
X-10440000Y-7700000D02*
X-12100000Y-7700000D01*
X-9170000Y-7700000D02*
X-9170000Y-9335000D01*
X-16767500Y-9532500D02*
X-16800000Y-9500000D01*
X-9367500Y-9532500D02*
X-16767500Y-9532500D01*
X-9170000Y-9335000D02*
X-9367500Y-9532500D01*
X-7900000Y-7700000D02*
X-7900000Y-9400000D01*
X-7900000Y-9400000D02*
X-8500000Y-10000000D01*
X-8500000Y-10000000D02*
X-8600000Y-10100000D01*
X-15900000Y-10100000D02*
X-16200000Y-10400000D01*
X-8600000Y-10100000D02*
X-15900000Y-10100000D01*
X-6630000Y-6065000D02*
X-6995000Y-5700000D01*
X-6630000Y-7700000D02*
X-6630000Y-6065000D01*
X-6995000Y-5700000D02*
X-13600000Y-5700000D01*
X-15725001Y-3574999D02*
X-15400000Y-3900000D01*
X-16874999Y-3574999D02*
X-15725001Y-3574999D01*
X-17600000Y-4300000D02*
X-16874999Y-3574999D01*
X-15400000Y-3900000D02*
X-15700000Y-3600000D01*
X-13600000Y-5700000D02*
X-15400000Y-3900000D01*
X-39050000Y-6250000D02*
X-39100000Y-6200000D01*
X-37550000Y-6250000D02*
X-39050000Y-6250000D01*
X-39100000Y-8800000D02*
X-39000000Y-8800000D01*
X-38025000Y-7725000D02*
X-39100000Y-8800000D01*
X-38025000Y-7600000D02*
X-38025000Y-7725000D01*
X-30025000Y-10100000D02*
X-18975000Y-10100000D01*
X-16325000Y-12375000D02*
X-16400000Y-12375000D01*
X-16325000Y-12375000D02*
X-13475000Y-12375000D01*
X-18675000Y-10100000D02*
X-18975000Y-10100000D01*
X-16400000Y-12375000D02*
X-18675000Y-10100000D01*
X-12525000Y-13200000D02*
X-15975000Y-13200000D01*
X-15975000Y-13200000D02*
X-16211410Y-13200000D01*
X-16211410Y-13200000D02*
X-18811410Y-10600000D01*
X-27275000Y-10600000D02*
X-27900000Y-11225000D01*
X-27900000Y-11225000D02*
X-29700000Y-11225000D01*
X-18811410Y-10600000D02*
X-27275000Y-10600000D01*
X-40950000Y-18500000D02*
X-41350000Y-18100000D01*
X-41350000Y-16000000D02*
X-41300000Y-15950000D01*
X-41350000Y-18100000D02*
X-41350000Y-16000000D01*
X-39250000Y-18500000D02*
X-39250000Y-19450000D01*
X-40850000Y-21050000D02*
X-41300000Y-21050000D01*
X-39250000Y-19450000D02*
X-40850000Y-21050000D01*
D21*
X-29546500Y-2515000D02*
X-30156531Y-2515000D01*
X-30200000Y-2510719D01*
X-30243469Y-2515000D01*
X-30243477Y-2515000D01*
X-30352361Y-2525724D01*
X-30373491Y-2527805D01*
X-30416041Y-2540713D01*
X-30540313Y-2578411D01*
X-30694059Y-2660589D01*
X-30694061Y-2660590D01*
X-30694060Y-2660590D01*
X-30795047Y-2743468D01*
X-30795049Y-2743470D01*
X-30828817Y-2771183D01*
X-30856530Y-2804951D01*
X-36395048Y-8343470D01*
X-36428816Y-8371183D01*
X-36456529Y-8404951D01*
X-36456532Y-8404954D01*
X-36539410Y-8505941D01*
X-36621588Y-8659687D01*
X-36672195Y-8826510D01*
X-36689281Y-9000000D01*
X-36684999Y-9043479D01*
X-36685000Y-16856531D01*
X-36689281Y-16900000D01*
X-36685000Y-16943469D01*
X-36685000Y-16943476D01*
X-36672195Y-17073489D01*
X-36621589Y-17240312D01*
X-36539411Y-17394058D01*
X-36428817Y-17528817D01*
X-36395044Y-17556534D01*
X-35472500Y-18479079D01*
X-35472500Y-18584137D01*
X-35425040Y-18822736D01*
X-35331943Y-19047492D01*
X-35196787Y-19249767D01*
X-35024767Y-19421787D01*
X-34822492Y-19556943D01*
X-34597736Y-19650040D01*
X-34359137Y-19697500D01*
X-34115863Y-19697500D01*
X-33877264Y-19650040D01*
X-33652508Y-19556943D01*
X-33450233Y-19421787D01*
X-33413446Y-19385000D01*
X-23666578Y-19385000D01*
X-23006782Y-20044797D01*
X-23087540Y-20239764D01*
X-23135000Y-20478363D01*
X-23135000Y-20721637D01*
X-23087540Y-20960236D01*
X-22994443Y-21184992D01*
X-22859287Y-21387267D01*
X-22687267Y-21559287D01*
X-22484992Y-21694443D01*
X-22260236Y-21787540D01*
X-22021637Y-21835000D01*
X-21778363Y-21835000D01*
X-21539764Y-21787540D01*
X-21315008Y-21694443D01*
X-21112733Y-21559287D01*
X-20940713Y-21387267D01*
X-20805557Y-21184992D01*
X-20712460Y-20960236D01*
X-20665000Y-20721637D01*
X-20665000Y-20478363D01*
X-20712460Y-20239764D01*
X-20805557Y-20015008D01*
X-20940713Y-19812733D01*
X-21028183Y-19725263D01*
X-21078411Y-19559687D01*
X-21160589Y-19405941D01*
X-21218809Y-19335000D01*
X-21243468Y-19304953D01*
X-21243470Y-19304951D01*
X-21271183Y-19271183D01*
X-21304950Y-19243471D01*
X-22643468Y-17904954D01*
X-22671183Y-17871183D01*
X-22805941Y-17760589D01*
X-22959687Y-17678411D01*
X-23126510Y-17627805D01*
X-23256523Y-17615000D01*
X-23256531Y-17615000D01*
X-23300000Y-17610719D01*
X-23343469Y-17615000D01*
X-33338446Y-17615000D01*
X-33450233Y-17503213D01*
X-33652508Y-17368057D01*
X-33877264Y-17274960D01*
X-34115863Y-17227500D01*
X-34220921Y-17227500D01*
X-34915000Y-16533422D01*
X-34915000Y-16189931D01*
X-34836930Y-16378408D01*
X-34622432Y-16699427D01*
X-34349427Y-16972432D01*
X-34028408Y-17186930D01*
X-33671711Y-17334679D01*
X-33293043Y-17410000D01*
X-32906957Y-17410000D01*
X-32528289Y-17334679D01*
X-32171592Y-17186930D01*
X-31850573Y-16972432D01*
X-31577568Y-16699427D01*
X-31363070Y-16378408D01*
X-31215321Y-16021711D01*
X-31140000Y-15643043D01*
X-31140000Y-15256957D01*
X-31215321Y-14878289D01*
X-31363070Y-14521592D01*
X-31577568Y-14200573D01*
X-31850573Y-13927568D01*
X-32171592Y-13713070D01*
X-32528289Y-13565321D01*
X-32906957Y-13490000D01*
X-33293043Y-13490000D01*
X-33671711Y-13565321D01*
X-34028408Y-13713070D01*
X-34349427Y-13927568D01*
X-34622432Y-14200573D01*
X-34836930Y-14521592D01*
X-34915000Y-14710069D01*
X-34915000Y-9366578D01*
X-29833421Y-4285000D01*
X-25543556Y-4285000D01*
X-25709774Y-4396063D01*
X-25853937Y-4540226D01*
X-25967205Y-4709744D01*
X-26021159Y-4840000D01*
X-28146289Y-4840000D01*
X-28190226Y-4796063D01*
X-28359744Y-4682795D01*
X-28548102Y-4604774D01*
X-28748061Y-4565000D01*
X-28951939Y-4565000D01*
X-29151898Y-4604774D01*
X-29340256Y-4682795D01*
X-29509774Y-4796063D01*
X-29653937Y-4940226D01*
X-29767205Y-5109744D01*
X-29845226Y-5298102D01*
X-29885000Y-5498061D01*
X-29885000Y-5701939D01*
X-29845226Y-5901898D01*
X-29767205Y-6090256D01*
X-29653937Y-6259774D01*
X-29509774Y-6403937D01*
X-29478251Y-6425000D01*
X-29509774Y-6446063D01*
X-29653937Y-6590226D01*
X-29767205Y-6759744D01*
X-29845226Y-6948102D01*
X-29885000Y-7148061D01*
X-29885000Y-7351939D01*
X-29845226Y-7551898D01*
X-29767205Y-7740256D01*
X-29653937Y-7909774D01*
X-29509774Y-8053937D01*
X-29340256Y-8167205D01*
X-29151898Y-8245226D01*
X-28951939Y-8285000D01*
X-28748061Y-8285000D01*
X-28548102Y-8245226D01*
X-28359744Y-8167205D01*
X-28348961Y-8160000D01*
X-18114801Y-8160000D01*
X-17885000Y-8389801D01*
X-17885000Y-8451939D01*
X-17845226Y-8651898D01*
X-17767205Y-8840256D01*
X-17685581Y-8962415D01*
X-17717205Y-9009744D01*
X-17795226Y-9198102D01*
X-17835000Y-9398061D01*
X-17835000Y-9601939D01*
X-17795226Y-9801898D01*
X-17722340Y-9977859D01*
X-18111196Y-9589003D01*
X-18134999Y-9559999D01*
X-18250724Y-9465026D01*
X-18382753Y-9394454D01*
X-18526014Y-9350997D01*
X-18637667Y-9340000D01*
X-18637678Y-9340000D01*
X-18675000Y-9336324D01*
X-18712322Y-9340000D01*
X-29321289Y-9340000D01*
X-29365226Y-9296063D01*
X-29534744Y-9182795D01*
X-29723102Y-9104774D01*
X-29923061Y-9065000D01*
X-30126939Y-9065000D01*
X-30326898Y-9104774D01*
X-30515256Y-9182795D01*
X-30684774Y-9296063D01*
X-30828937Y-9440226D01*
X-30942205Y-9609744D01*
X-31020226Y-9798102D01*
X-31060000Y-9998061D01*
X-31060000Y-10201939D01*
X-31020226Y-10401898D01*
X-30942205Y-10590256D01*
X-30828937Y-10759774D01*
X-30686551Y-10902160D01*
X-30695226Y-10923102D01*
X-30735000Y-11123061D01*
X-30735000Y-11326939D01*
X-30695226Y-11526898D01*
X-30617205Y-11715256D01*
X-30503937Y-11884774D01*
X-30420526Y-11968185D01*
X-30639744Y-12114662D01*
X-30895338Y-12370256D01*
X-31096156Y-12670801D01*
X-31234482Y-13004750D01*
X-31305000Y-13359268D01*
X-31305000Y-13720732D01*
X-31234482Y-14075250D01*
X-31096156Y-14409199D01*
X-30895338Y-14709744D01*
X-30639744Y-14965338D01*
X-30339199Y-15166156D01*
X-30005250Y-15304482D01*
X-29650732Y-15375000D01*
X-29289268Y-15375000D01*
X-28934750Y-15304482D01*
X-28600801Y-15166156D01*
X-28553984Y-15134874D01*
X-28503937Y-15209774D01*
X-28359774Y-15353937D01*
X-28190256Y-15467205D01*
X-28001898Y-15545226D01*
X-27801939Y-15585000D01*
X-27598061Y-15585000D01*
X-27398102Y-15545226D01*
X-27209744Y-15467205D01*
X-27040226Y-15353937D01*
X-26996289Y-15310000D01*
X-24614801Y-15310000D01*
X-23713800Y-16211002D01*
X-23690001Y-16240001D01*
X-23661003Y-16263799D01*
X-23574276Y-16334974D01*
X-23442247Y-16405546D01*
X-23298986Y-16449003D01*
X-23150000Y-16463677D01*
X-23112667Y-16460000D01*
X-19464801Y-16460000D01*
X-15884999Y-20039803D01*
X-15885000Y-24146289D01*
X-15928937Y-24190226D01*
X-16042205Y-24359744D01*
X-16120226Y-24548102D01*
X-16160000Y-24748061D01*
X-16160000Y-24951939D01*
X-16120226Y-25151898D01*
X-16042311Y-25340000D01*
X-42340000Y-25340000D01*
X-42340000Y-24419500D01*
X-39504285Y-24419500D01*
X-39504285Y-22748061D01*
X-38585000Y-22748061D01*
X-38585000Y-22951939D01*
X-38545226Y-23151898D01*
X-38467205Y-23340256D01*
X-38353937Y-23509774D01*
X-38209774Y-23653937D01*
X-38040256Y-23767205D01*
X-37851898Y-23845226D01*
X-37651939Y-23885000D01*
X-37589801Y-23885000D01*
X-36713799Y-24761003D01*
X-36690001Y-24790001D01*
X-36661003Y-24813799D01*
X-36574277Y-24884974D01*
X-36448995Y-24951939D01*
X-36442247Y-24955546D01*
X-36298986Y-24999003D01*
X-36187333Y-25010000D01*
X-36187323Y-25010000D01*
X-36150000Y-25013676D01*
X-36112678Y-25010000D01*
X-26637322Y-25010000D01*
X-26600000Y-25013676D01*
X-26562678Y-25010000D01*
X-26562667Y-25010000D01*
X-26451014Y-24999003D01*
X-26307753Y-24955546D01*
X-26175724Y-24884974D01*
X-26059999Y-24790001D01*
X-26036196Y-24760997D01*
X-24885198Y-23610000D01*
X-23553711Y-23610000D01*
X-23509774Y-23653937D01*
X-23340256Y-23767205D01*
X-23151898Y-23845226D01*
X-22951939Y-23885000D01*
X-22748061Y-23885000D01*
X-22548102Y-23845226D01*
X-22359744Y-23767205D01*
X-22190226Y-23653937D01*
X-22046063Y-23509774D01*
X-21932795Y-23340256D01*
X-21854774Y-23151898D01*
X-21815000Y-22951939D01*
X-21815000Y-22748061D01*
X-21854774Y-22548102D01*
X-21932795Y-22359744D01*
X-22046063Y-22190226D01*
X-22190226Y-22046063D01*
X-22359744Y-21932795D01*
X-22548102Y-21854774D01*
X-22748061Y-21815000D01*
X-22951939Y-21815000D01*
X-23151898Y-21854774D01*
X-23340256Y-21932795D01*
X-23509774Y-22046063D01*
X-23553711Y-22090000D01*
X-25162678Y-22090000D01*
X-25200000Y-22086324D01*
X-25237323Y-22090000D01*
X-25237333Y-22090000D01*
X-25348986Y-22100997D01*
X-25492247Y-22144454D01*
X-25624277Y-22215026D01*
X-25666892Y-22250000D01*
X-25740001Y-22309999D01*
X-25763799Y-22338997D01*
X-26774500Y-23349699D01*
X-26765000Y-23301939D01*
X-26765000Y-23098061D01*
X-26804774Y-22898102D01*
X-26831647Y-22833225D01*
X-26604956Y-22606534D01*
X-26571183Y-22578817D01*
X-26460589Y-22444059D01*
X-26378411Y-22290313D01*
X-26328183Y-22124737D01*
X-26240713Y-22037267D01*
X-26105557Y-21834992D01*
X-26012460Y-21610236D01*
X-25965000Y-21371637D01*
X-25965000Y-21128363D01*
X-26012460Y-20889764D01*
X-26105557Y-20665008D01*
X-26240713Y-20462733D01*
X-26412733Y-20290713D01*
X-26615008Y-20155557D01*
X-26839764Y-20062460D01*
X-27078363Y-20015000D01*
X-27321637Y-20015000D01*
X-27560236Y-20062460D01*
X-27784992Y-20155557D01*
X-27987267Y-20290713D01*
X-28159287Y-20462733D01*
X-28294443Y-20665008D01*
X-28387540Y-20889764D01*
X-28392560Y-20915000D01*
X-30584888Y-20915000D01*
X-30802264Y-20824960D01*
X-31040863Y-20777500D01*
X-31284137Y-20777500D01*
X-31522736Y-20824960D01*
X-31740112Y-20915000D01*
X-34633421Y-20915000D01*
X-34633546Y-20914875D01*
X-34615000Y-20821637D01*
X-34615000Y-20578363D01*
X-34662460Y-20339764D01*
X-34755557Y-20115008D01*
X-34890713Y-19912733D01*
X-35062733Y-19740713D01*
X-35265008Y-19605557D01*
X-35489764Y-19512460D01*
X-35728363Y-19465000D01*
X-35971637Y-19465000D01*
X-36210236Y-19512460D01*
X-36434992Y-19605557D01*
X-36637267Y-19740713D01*
X-36809287Y-19912733D01*
X-36944443Y-20115008D01*
X-37037540Y-20339764D01*
X-37085000Y-20578363D01*
X-37085000Y-20803896D01*
X-37122195Y-20926510D01*
X-37135000Y-21056523D01*
X-37135000Y-21056531D01*
X-37139281Y-21100000D01*
X-37135000Y-21143469D01*
X-37135000Y-21206531D01*
X-37139281Y-21250000D01*
X-37135000Y-21293468D01*
X-37135000Y-21293476D01*
X-37125612Y-21388799D01*
X-37122195Y-21423490D01*
X-37115955Y-21444059D01*
X-37071589Y-21590312D01*
X-36989411Y-21744058D01*
X-36878817Y-21878817D01*
X-36845044Y-21906534D01*
X-35906530Y-22845049D01*
X-35878817Y-22878817D01*
X-35845049Y-22906530D01*
X-35845047Y-22906532D01*
X-35744059Y-22989411D01*
X-35590314Y-23071589D01*
X-35423490Y-23122195D01*
X-35293477Y-23135000D01*
X-35293469Y-23135000D01*
X-35250000Y-23139281D01*
X-35206531Y-23135000D01*
X-33689799Y-23135000D01*
X-33695226Y-23148102D01*
X-33735000Y-23348061D01*
X-33735000Y-23490000D01*
X-35835198Y-23490000D01*
X-36515000Y-22810199D01*
X-36515000Y-22748061D01*
X-36554774Y-22548102D01*
X-36632795Y-22359744D01*
X-36746063Y-22190226D01*
X-36890226Y-22046063D01*
X-37059744Y-21932795D01*
X-37248102Y-21854774D01*
X-37448061Y-21815000D01*
X-37651939Y-21815000D01*
X-37851898Y-21854774D01*
X-38040256Y-21932795D01*
X-38209774Y-22046063D01*
X-38353937Y-22190226D01*
X-38467205Y-22359744D01*
X-38545226Y-22548102D01*
X-38585000Y-22748061D01*
X-39504285Y-22748061D01*
X-39504285Y-21799500D01*
X-39840742Y-21799500D01*
X-39727832Y-21526912D01*
X-39665000Y-21211033D01*
X-39665000Y-20939801D01*
X-38738997Y-20013799D01*
X-38709999Y-19990001D01*
X-38615026Y-19874276D01*
X-38544454Y-19742247D01*
X-38500997Y-19598986D01*
X-38490000Y-19487333D01*
X-38490000Y-19487325D01*
X-38486324Y-19450000D01*
X-38490000Y-19412675D01*
X-38490000Y-19203711D01*
X-38446063Y-19159774D01*
X-38332795Y-18990256D01*
X-38254774Y-18801898D01*
X-38215000Y-18601939D01*
X-38215000Y-18398061D01*
X-38254774Y-18198102D01*
X-38332795Y-18009744D01*
X-38446063Y-17840226D01*
X-38590226Y-17696063D01*
X-38759744Y-17582795D01*
X-38948102Y-17504774D01*
X-39148061Y-17465000D01*
X-39351939Y-17465000D01*
X-39551898Y-17504774D01*
X-39740256Y-17582795D01*
X-39909774Y-17696063D01*
X-40053937Y-17840226D01*
X-40100000Y-17909164D01*
X-40146063Y-17840226D01*
X-40290226Y-17696063D01*
X-40459744Y-17582795D01*
X-40590000Y-17528841D01*
X-40590000Y-17425620D01*
X-40525537Y-17398918D01*
X-40257748Y-17219987D01*
X-40030013Y-16992252D01*
X-39851082Y-16724463D01*
X-39727832Y-16426912D01*
X-39665000Y-16111033D01*
X-39665000Y-15788967D01*
X-39727832Y-15473088D01*
X-39840742Y-15200500D01*
X-39504286Y-15200500D01*
X-39504286Y-13592268D01*
X-39462267Y-13634287D01*
X-39259992Y-13769443D01*
X-39035236Y-13862540D01*
X-38796637Y-13910000D01*
X-38553363Y-13910000D01*
X-38314764Y-13862540D01*
X-38090008Y-13769443D01*
X-37887733Y-13634287D01*
X-37715713Y-13462267D01*
X-37580557Y-13259992D01*
X-37487460Y-13035236D01*
X-37440000Y-12796637D01*
X-37440000Y-12553363D01*
X-37441521Y-12545714D01*
X-37128500Y-12545714D01*
X-37128500Y-8954285D01*
X-37465000Y-8954285D01*
X-37465000Y-8638967D01*
X-37494561Y-8490355D01*
X-37365226Y-8403937D01*
X-37221063Y-8259774D01*
X-37107795Y-8090256D01*
X-37029774Y-7901898D01*
X-36990000Y-7701939D01*
X-36990000Y-7498061D01*
X-37029774Y-7298102D01*
X-37080442Y-7175779D01*
X-37059744Y-7167205D01*
X-36890226Y-7053937D01*
X-36746063Y-6909774D01*
X-36632795Y-6740256D01*
X-36554774Y-6551898D01*
X-36515000Y-6351939D01*
X-36515000Y-6148061D01*
X-36554774Y-5948102D01*
X-36632795Y-5759744D01*
X-36746063Y-5590226D01*
X-36890226Y-5446063D01*
X-37059744Y-5332795D01*
X-37248102Y-5254774D01*
X-37448061Y-5215000D01*
X-37572604Y-5215000D01*
X-37651082Y-5025537D01*
X-37830013Y-4757748D01*
X-37851500Y-4736261D01*
X-37851500Y-3335000D01*
X-37538967Y-3335000D01*
X-37353475Y-3298104D01*
X-36756530Y-3895049D01*
X-36728817Y-3928817D01*
X-36698578Y-3953634D01*
X-36609287Y-4087267D01*
X-36437267Y-4259287D01*
X-36234992Y-4394443D01*
X-36010236Y-4487540D01*
X-35771637Y-4535000D01*
X-35528363Y-4535000D01*
X-35289764Y-4487540D01*
X-35065008Y-4394443D01*
X-34862733Y-4259287D01*
X-34690713Y-4087267D01*
X-34555557Y-3884992D01*
X-34462460Y-3660236D01*
X-34415000Y-3421637D01*
X-34415000Y-3178363D01*
X-34462460Y-2939764D01*
X-34519287Y-2802572D01*
X-34349427Y-2972432D01*
X-34028408Y-3186930D01*
X-33671711Y-3334679D01*
X-33293043Y-3410000D01*
X-32906957Y-3410000D01*
X-32528289Y-3334679D01*
X-32171592Y-3186930D01*
X-31850573Y-2972432D01*
X-31577568Y-2699427D01*
X-31363070Y-2378408D01*
X-31215321Y-2021711D01*
X-31140000Y-1643043D01*
X-31140000Y-1256957D01*
X-31215321Y-878289D01*
X-31305739Y-660000D01*
X-29546500Y-660000D01*
X-29546500Y-2515000D01*
G04 #@! TA.AperFunction,Conductor*
D22*
G36*
X-29546500Y-2515000D02*
G01*
X-30156531Y-2515000D01*
X-30200000Y-2510719D01*
X-30243469Y-2515000D01*
X-30243477Y-2515000D01*
X-30352361Y-2525724D01*
X-30373491Y-2527805D01*
X-30416041Y-2540713D01*
X-30540313Y-2578411D01*
X-30694059Y-2660589D01*
X-30694061Y-2660590D01*
X-30694060Y-2660590D01*
X-30795047Y-2743468D01*
X-30795049Y-2743470D01*
X-30828817Y-2771183D01*
X-30856530Y-2804951D01*
X-36395048Y-8343470D01*
X-36428816Y-8371183D01*
X-36456529Y-8404951D01*
X-36456532Y-8404954D01*
X-36539410Y-8505941D01*
X-36621588Y-8659687D01*
X-36672195Y-8826510D01*
X-36689281Y-9000000D01*
X-36684999Y-9043479D01*
X-36685000Y-16856531D01*
X-36689281Y-16900000D01*
X-36685000Y-16943469D01*
X-36685000Y-16943476D01*
X-36672195Y-17073489D01*
X-36621589Y-17240312D01*
X-36539411Y-17394058D01*
X-36428817Y-17528817D01*
X-36395044Y-17556534D01*
X-35472500Y-18479079D01*
X-35472500Y-18584137D01*
X-35425040Y-18822736D01*
X-35331943Y-19047492D01*
X-35196787Y-19249767D01*
X-35024767Y-19421787D01*
X-34822492Y-19556943D01*
X-34597736Y-19650040D01*
X-34359137Y-19697500D01*
X-34115863Y-19697500D01*
X-33877264Y-19650040D01*
X-33652508Y-19556943D01*
X-33450233Y-19421787D01*
X-33413446Y-19385000D01*
X-23666578Y-19385000D01*
X-23006782Y-20044797D01*
X-23087540Y-20239764D01*
X-23135000Y-20478363D01*
X-23135000Y-20721637D01*
X-23087540Y-20960236D01*
X-22994443Y-21184992D01*
X-22859287Y-21387267D01*
X-22687267Y-21559287D01*
X-22484992Y-21694443D01*
X-22260236Y-21787540D01*
X-22021637Y-21835000D01*
X-21778363Y-21835000D01*
X-21539764Y-21787540D01*
X-21315008Y-21694443D01*
X-21112733Y-21559287D01*
X-20940713Y-21387267D01*
X-20805557Y-21184992D01*
X-20712460Y-20960236D01*
X-20665000Y-20721637D01*
X-20665000Y-20478363D01*
X-20712460Y-20239764D01*
X-20805557Y-20015008D01*
X-20940713Y-19812733D01*
X-21028183Y-19725263D01*
X-21078411Y-19559687D01*
X-21160589Y-19405941D01*
X-21218809Y-19335000D01*
X-21243468Y-19304953D01*
X-21243470Y-19304951D01*
X-21271183Y-19271183D01*
X-21304950Y-19243471D01*
X-22643468Y-17904954D01*
X-22671183Y-17871183D01*
X-22805941Y-17760589D01*
X-22959687Y-17678411D01*
X-23126510Y-17627805D01*
X-23256523Y-17615000D01*
X-23256531Y-17615000D01*
X-23300000Y-17610719D01*
X-23343469Y-17615000D01*
X-33338446Y-17615000D01*
X-33450233Y-17503213D01*
X-33652508Y-17368057D01*
X-33877264Y-17274960D01*
X-34115863Y-17227500D01*
X-34220921Y-17227500D01*
X-34915000Y-16533422D01*
X-34915000Y-16189931D01*
X-34836930Y-16378408D01*
X-34622432Y-16699427D01*
X-34349427Y-16972432D01*
X-34028408Y-17186930D01*
X-33671711Y-17334679D01*
X-33293043Y-17410000D01*
X-32906957Y-17410000D01*
X-32528289Y-17334679D01*
X-32171592Y-17186930D01*
X-31850573Y-16972432D01*
X-31577568Y-16699427D01*
X-31363070Y-16378408D01*
X-31215321Y-16021711D01*
X-31140000Y-15643043D01*
X-31140000Y-15256957D01*
X-31215321Y-14878289D01*
X-31363070Y-14521592D01*
X-31577568Y-14200573D01*
X-31850573Y-13927568D01*
X-32171592Y-13713070D01*
X-32528289Y-13565321D01*
X-32906957Y-13490000D01*
X-33293043Y-13490000D01*
X-33671711Y-13565321D01*
X-34028408Y-13713070D01*
X-34349427Y-13927568D01*
X-34622432Y-14200573D01*
X-34836930Y-14521592D01*
X-34915000Y-14710069D01*
X-34915000Y-9366578D01*
X-29833421Y-4285000D01*
X-25543556Y-4285000D01*
X-25709774Y-4396063D01*
X-25853937Y-4540226D01*
X-25967205Y-4709744D01*
X-26021159Y-4840000D01*
X-28146289Y-4840000D01*
X-28190226Y-4796063D01*
X-28359744Y-4682795D01*
X-28548102Y-4604774D01*
X-28748061Y-4565000D01*
X-28951939Y-4565000D01*
X-29151898Y-4604774D01*
X-29340256Y-4682795D01*
X-29509774Y-4796063D01*
X-29653937Y-4940226D01*
X-29767205Y-5109744D01*
X-29845226Y-5298102D01*
X-29885000Y-5498061D01*
X-29885000Y-5701939D01*
X-29845226Y-5901898D01*
X-29767205Y-6090256D01*
X-29653937Y-6259774D01*
X-29509774Y-6403937D01*
X-29478251Y-6425000D01*
X-29509774Y-6446063D01*
X-29653937Y-6590226D01*
X-29767205Y-6759744D01*
X-29845226Y-6948102D01*
X-29885000Y-7148061D01*
X-29885000Y-7351939D01*
X-29845226Y-7551898D01*
X-29767205Y-7740256D01*
X-29653937Y-7909774D01*
X-29509774Y-8053937D01*
X-29340256Y-8167205D01*
X-29151898Y-8245226D01*
X-28951939Y-8285000D01*
X-28748061Y-8285000D01*
X-28548102Y-8245226D01*
X-28359744Y-8167205D01*
X-28348961Y-8160000D01*
X-18114801Y-8160000D01*
X-17885000Y-8389801D01*
X-17885000Y-8451939D01*
X-17845226Y-8651898D01*
X-17767205Y-8840256D01*
X-17685581Y-8962415D01*
X-17717205Y-9009744D01*
X-17795226Y-9198102D01*
X-17835000Y-9398061D01*
X-17835000Y-9601939D01*
X-17795226Y-9801898D01*
X-17722340Y-9977859D01*
X-18111196Y-9589003D01*
X-18134999Y-9559999D01*
X-18250724Y-9465026D01*
X-18382753Y-9394454D01*
X-18526014Y-9350997D01*
X-18637667Y-9340000D01*
X-18637678Y-9340000D01*
X-18675000Y-9336324D01*
X-18712322Y-9340000D01*
X-29321289Y-9340000D01*
X-29365226Y-9296063D01*
X-29534744Y-9182795D01*
X-29723102Y-9104774D01*
X-29923061Y-9065000D01*
X-30126939Y-9065000D01*
X-30326898Y-9104774D01*
X-30515256Y-9182795D01*
X-30684774Y-9296063D01*
X-30828937Y-9440226D01*
X-30942205Y-9609744D01*
X-31020226Y-9798102D01*
X-31060000Y-9998061D01*
X-31060000Y-10201939D01*
X-31020226Y-10401898D01*
X-30942205Y-10590256D01*
X-30828937Y-10759774D01*
X-30686551Y-10902160D01*
X-30695226Y-10923102D01*
X-30735000Y-11123061D01*
X-30735000Y-11326939D01*
X-30695226Y-11526898D01*
X-30617205Y-11715256D01*
X-30503937Y-11884774D01*
X-30420526Y-11968185D01*
X-30639744Y-12114662D01*
X-30895338Y-12370256D01*
X-31096156Y-12670801D01*
X-31234482Y-13004750D01*
X-31305000Y-13359268D01*
X-31305000Y-13720732D01*
X-31234482Y-14075250D01*
X-31096156Y-14409199D01*
X-30895338Y-14709744D01*
X-30639744Y-14965338D01*
X-30339199Y-15166156D01*
X-30005250Y-15304482D01*
X-29650732Y-15375000D01*
X-29289268Y-15375000D01*
X-28934750Y-15304482D01*
X-28600801Y-15166156D01*
X-28553984Y-15134874D01*
X-28503937Y-15209774D01*
X-28359774Y-15353937D01*
X-28190256Y-15467205D01*
X-28001898Y-15545226D01*
X-27801939Y-15585000D01*
X-27598061Y-15585000D01*
X-27398102Y-15545226D01*
X-27209744Y-15467205D01*
X-27040226Y-15353937D01*
X-26996289Y-15310000D01*
X-24614801Y-15310000D01*
X-23713800Y-16211002D01*
X-23690001Y-16240001D01*
X-23661003Y-16263799D01*
X-23574276Y-16334974D01*
X-23442247Y-16405546D01*
X-23298986Y-16449003D01*
X-23150000Y-16463677D01*
X-23112667Y-16460000D01*
X-19464801Y-16460000D01*
X-15884999Y-20039803D01*
X-15885000Y-24146289D01*
X-15928937Y-24190226D01*
X-16042205Y-24359744D01*
X-16120226Y-24548102D01*
X-16160000Y-24748061D01*
X-16160000Y-24951939D01*
X-16120226Y-25151898D01*
X-16042311Y-25340000D01*
X-42340000Y-25340000D01*
X-42340000Y-24419500D01*
X-39504285Y-24419500D01*
X-39504285Y-22748061D01*
X-38585000Y-22748061D01*
X-38585000Y-22951939D01*
X-38545226Y-23151898D01*
X-38467205Y-23340256D01*
X-38353937Y-23509774D01*
X-38209774Y-23653937D01*
X-38040256Y-23767205D01*
X-37851898Y-23845226D01*
X-37651939Y-23885000D01*
X-37589801Y-23885000D01*
X-36713799Y-24761003D01*
X-36690001Y-24790001D01*
X-36661003Y-24813799D01*
X-36574277Y-24884974D01*
X-36448995Y-24951939D01*
X-36442247Y-24955546D01*
X-36298986Y-24999003D01*
X-36187333Y-25010000D01*
X-36187323Y-25010000D01*
X-36150000Y-25013676D01*
X-36112678Y-25010000D01*
X-26637322Y-25010000D01*
X-26600000Y-25013676D01*
X-26562678Y-25010000D01*
X-26562667Y-25010000D01*
X-26451014Y-24999003D01*
X-26307753Y-24955546D01*
X-26175724Y-24884974D01*
X-26059999Y-24790001D01*
X-26036196Y-24760997D01*
X-24885198Y-23610000D01*
X-23553711Y-23610000D01*
X-23509774Y-23653937D01*
X-23340256Y-23767205D01*
X-23151898Y-23845226D01*
X-22951939Y-23885000D01*
X-22748061Y-23885000D01*
X-22548102Y-23845226D01*
X-22359744Y-23767205D01*
X-22190226Y-23653937D01*
X-22046063Y-23509774D01*
X-21932795Y-23340256D01*
X-21854774Y-23151898D01*
X-21815000Y-22951939D01*
X-21815000Y-22748061D01*
X-21854774Y-22548102D01*
X-21932795Y-22359744D01*
X-22046063Y-22190226D01*
X-22190226Y-22046063D01*
X-22359744Y-21932795D01*
X-22548102Y-21854774D01*
X-22748061Y-21815000D01*
X-22951939Y-21815000D01*
X-23151898Y-21854774D01*
X-23340256Y-21932795D01*
X-23509774Y-22046063D01*
X-23553711Y-22090000D01*
X-25162678Y-22090000D01*
X-25200000Y-22086324D01*
X-25237323Y-22090000D01*
X-25237333Y-22090000D01*
X-25348986Y-22100997D01*
X-25492247Y-22144454D01*
X-25624277Y-22215026D01*
X-25666892Y-22250000D01*
X-25740001Y-22309999D01*
X-25763799Y-22338997D01*
X-26774500Y-23349699D01*
X-26765000Y-23301939D01*
X-26765000Y-23098061D01*
X-26804774Y-22898102D01*
X-26831647Y-22833225D01*
X-26604956Y-22606534D01*
X-26571183Y-22578817D01*
X-26460589Y-22444059D01*
X-26378411Y-22290313D01*
X-26328183Y-22124737D01*
X-26240713Y-22037267D01*
X-26105557Y-21834992D01*
X-26012460Y-21610236D01*
X-25965000Y-21371637D01*
X-25965000Y-21128363D01*
X-26012460Y-20889764D01*
X-26105557Y-20665008D01*
X-26240713Y-20462733D01*
X-26412733Y-20290713D01*
X-26615008Y-20155557D01*
X-26839764Y-20062460D01*
X-27078363Y-20015000D01*
X-27321637Y-20015000D01*
X-27560236Y-20062460D01*
X-27784992Y-20155557D01*
X-27987267Y-20290713D01*
X-28159287Y-20462733D01*
X-28294443Y-20665008D01*
X-28387540Y-20889764D01*
X-28392560Y-20915000D01*
X-30584888Y-20915000D01*
X-30802264Y-20824960D01*
X-31040863Y-20777500D01*
X-31284137Y-20777500D01*
X-31522736Y-20824960D01*
X-31740112Y-20915000D01*
X-34633421Y-20915000D01*
X-34633546Y-20914875D01*
X-34615000Y-20821637D01*
X-34615000Y-20578363D01*
X-34662460Y-20339764D01*
X-34755557Y-20115008D01*
X-34890713Y-19912733D01*
X-35062733Y-19740713D01*
X-35265008Y-19605557D01*
X-35489764Y-19512460D01*
X-35728363Y-19465000D01*
X-35971637Y-19465000D01*
X-36210236Y-19512460D01*
X-36434992Y-19605557D01*
X-36637267Y-19740713D01*
X-36809287Y-19912733D01*
X-36944443Y-20115008D01*
X-37037540Y-20339764D01*
X-37085000Y-20578363D01*
X-37085000Y-20803896D01*
X-37122195Y-20926510D01*
X-37135000Y-21056523D01*
X-37135000Y-21056531D01*
X-37139281Y-21100000D01*
X-37135000Y-21143469D01*
X-37135000Y-21206531D01*
X-37139281Y-21250000D01*
X-37135000Y-21293468D01*
X-37135000Y-21293476D01*
X-37125612Y-21388799D01*
X-37122195Y-21423490D01*
X-37115955Y-21444059D01*
X-37071589Y-21590312D01*
X-36989411Y-21744058D01*
X-36878817Y-21878817D01*
X-36845044Y-21906534D01*
X-35906530Y-22845049D01*
X-35878817Y-22878817D01*
X-35845049Y-22906530D01*
X-35845047Y-22906532D01*
X-35744059Y-22989411D01*
X-35590314Y-23071589D01*
X-35423490Y-23122195D01*
X-35293477Y-23135000D01*
X-35293469Y-23135000D01*
X-35250000Y-23139281D01*
X-35206531Y-23135000D01*
X-33689799Y-23135000D01*
X-33695226Y-23148102D01*
X-33735000Y-23348061D01*
X-33735000Y-23490000D01*
X-35835198Y-23490000D01*
X-36515000Y-22810199D01*
X-36515000Y-22748061D01*
X-36554774Y-22548102D01*
X-36632795Y-22359744D01*
X-36746063Y-22190226D01*
X-36890226Y-22046063D01*
X-37059744Y-21932795D01*
X-37248102Y-21854774D01*
X-37448061Y-21815000D01*
X-37651939Y-21815000D01*
X-37851898Y-21854774D01*
X-38040256Y-21932795D01*
X-38209774Y-22046063D01*
X-38353937Y-22190226D01*
X-38467205Y-22359744D01*
X-38545226Y-22548102D01*
X-38585000Y-22748061D01*
X-39504285Y-22748061D01*
X-39504285Y-21799500D01*
X-39840742Y-21799500D01*
X-39727832Y-21526912D01*
X-39665000Y-21211033D01*
X-39665000Y-20939801D01*
X-38738997Y-20013799D01*
X-38709999Y-19990001D01*
X-38615026Y-19874276D01*
X-38544454Y-19742247D01*
X-38500997Y-19598986D01*
X-38490000Y-19487333D01*
X-38490000Y-19487325D01*
X-38486324Y-19450000D01*
X-38490000Y-19412675D01*
X-38490000Y-19203711D01*
X-38446063Y-19159774D01*
X-38332795Y-18990256D01*
X-38254774Y-18801898D01*
X-38215000Y-18601939D01*
X-38215000Y-18398061D01*
X-38254774Y-18198102D01*
X-38332795Y-18009744D01*
X-38446063Y-17840226D01*
X-38590226Y-17696063D01*
X-38759744Y-17582795D01*
X-38948102Y-17504774D01*
X-39148061Y-17465000D01*
X-39351939Y-17465000D01*
X-39551898Y-17504774D01*
X-39740256Y-17582795D01*
X-39909774Y-17696063D01*
X-40053937Y-17840226D01*
X-40100000Y-17909164D01*
X-40146063Y-17840226D01*
X-40290226Y-17696063D01*
X-40459744Y-17582795D01*
X-40590000Y-17528841D01*
X-40590000Y-17425620D01*
X-40525537Y-17398918D01*
X-40257748Y-17219987D01*
X-40030013Y-16992252D01*
X-39851082Y-16724463D01*
X-39727832Y-16426912D01*
X-39665000Y-16111033D01*
X-39665000Y-15788967D01*
X-39727832Y-15473088D01*
X-39840742Y-15200500D01*
X-39504286Y-15200500D01*
X-39504286Y-13592268D01*
X-39462267Y-13634287D01*
X-39259992Y-13769443D01*
X-39035236Y-13862540D01*
X-38796637Y-13910000D01*
X-38553363Y-13910000D01*
X-38314764Y-13862540D01*
X-38090008Y-13769443D01*
X-37887733Y-13634287D01*
X-37715713Y-13462267D01*
X-37580557Y-13259992D01*
X-37487460Y-13035236D01*
X-37440000Y-12796637D01*
X-37440000Y-12553363D01*
X-37441521Y-12545714D01*
X-37128500Y-12545714D01*
X-37128500Y-8954285D01*
X-37465000Y-8954285D01*
X-37465000Y-8638967D01*
X-37494561Y-8490355D01*
X-37365226Y-8403937D01*
X-37221063Y-8259774D01*
X-37107795Y-8090256D01*
X-37029774Y-7901898D01*
X-36990000Y-7701939D01*
X-36990000Y-7498061D01*
X-37029774Y-7298102D01*
X-37080442Y-7175779D01*
X-37059744Y-7167205D01*
X-36890226Y-7053937D01*
X-36746063Y-6909774D01*
X-36632795Y-6740256D01*
X-36554774Y-6551898D01*
X-36515000Y-6351939D01*
X-36515000Y-6148061D01*
X-36554774Y-5948102D01*
X-36632795Y-5759744D01*
X-36746063Y-5590226D01*
X-36890226Y-5446063D01*
X-37059744Y-5332795D01*
X-37248102Y-5254774D01*
X-37448061Y-5215000D01*
X-37572604Y-5215000D01*
X-37651082Y-5025537D01*
X-37830013Y-4757748D01*
X-37851500Y-4736261D01*
X-37851500Y-3335000D01*
X-37538967Y-3335000D01*
X-37353475Y-3298104D01*
X-36756530Y-3895049D01*
X-36728817Y-3928817D01*
X-36698578Y-3953634D01*
X-36609287Y-4087267D01*
X-36437267Y-4259287D01*
X-36234992Y-4394443D01*
X-36010236Y-4487540D01*
X-35771637Y-4535000D01*
X-35528363Y-4535000D01*
X-35289764Y-4487540D01*
X-35065008Y-4394443D01*
X-34862733Y-4259287D01*
X-34690713Y-4087267D01*
X-34555557Y-3884992D01*
X-34462460Y-3660236D01*
X-34415000Y-3421637D01*
X-34415000Y-3178363D01*
X-34462460Y-2939764D01*
X-34519287Y-2802572D01*
X-34349427Y-2972432D01*
X-34028408Y-3186930D01*
X-33671711Y-3334679D01*
X-33293043Y-3410000D01*
X-32906957Y-3410000D01*
X-32528289Y-3334679D01*
X-32171592Y-3186930D01*
X-31850573Y-2972432D01*
X-31577568Y-2699427D01*
X-31363070Y-2378408D01*
X-31215321Y-2021711D01*
X-31140000Y-1643043D01*
X-31140000Y-1256957D01*
X-31215321Y-878289D01*
X-31305739Y-660000D01*
X-29546500Y-660000D01*
X-29546500Y-2515000D01*
G37*
G04 #@! TD.AperFunction*
D21*
X-3498000Y-19473000D02*
X-3478000Y-19473000D01*
X-3478000Y-19727000D01*
X-3498000Y-19727000D01*
X-3498000Y-19747000D01*
X-3752000Y-19747000D01*
X-3752000Y-19727000D01*
X-3772000Y-19727000D01*
X-3772000Y-19473000D01*
X-3752000Y-19473000D01*
X-3752000Y-19453000D01*
X-3498000Y-19453000D01*
X-3498000Y-19473000D01*
G04 #@! TA.AperFunction,Conductor*
D22*
G36*
X-3498000Y-19473000D02*
G01*
X-3478000Y-19473000D01*
X-3478000Y-19727000D01*
X-3498000Y-19727000D01*
X-3498000Y-19747000D01*
X-3752000Y-19747000D01*
X-3752000Y-19727000D01*
X-3772000Y-19727000D01*
X-3772000Y-19473000D01*
X-3752000Y-19473000D01*
X-3752000Y-19453000D01*
X-3498000Y-19453000D01*
X-3498000Y-19473000D01*
G37*
G04 #@! TD.AperFunction*
D21*
X-659999Y-12276500D02*
X-5214762Y-12276500D01*
X-5214762Y-15821928D01*
X-6000000Y-15821928D01*
X-6124482Y-15834188D01*
X-6244180Y-15870498D01*
X-6354494Y-15929463D01*
X-6451185Y-16008815D01*
X-6500000Y-16068296D01*
X-6548815Y-16008815D01*
X-6645506Y-15929463D01*
X-6755820Y-15870498D01*
X-6875518Y-15834188D01*
X-7000000Y-15821928D01*
X-11750000Y-15821928D01*
X-11874482Y-15834188D01*
X-11994180Y-15870498D01*
X-12104494Y-15929463D01*
X-12201185Y-16008815D01*
X-12280537Y-16105506D01*
X-12339502Y-16215820D01*
X-12365038Y-16300000D01*
X-13625198Y-16300000D01*
X-15165198Y-14760000D01*
X-14703711Y-14760000D01*
X-14659774Y-14803937D01*
X-14490256Y-14917205D01*
X-14301898Y-14995226D01*
X-14101939Y-15035000D01*
X-13898061Y-15035000D01*
X-13698102Y-14995226D01*
X-13509744Y-14917205D01*
X-13340226Y-14803937D01*
X-13196063Y-14659774D01*
X-13082795Y-14490256D01*
X-13004774Y-14301898D01*
X-12971631Y-14135275D01*
X-12826898Y-14195226D01*
X-12626939Y-14235000D01*
X-12423061Y-14235000D01*
X-12223102Y-14195226D01*
X-12034744Y-14117205D01*
X-11865226Y-14003937D01*
X-11721063Y-13859774D01*
X-11607795Y-13690256D01*
X-11529774Y-13501898D01*
X-11490000Y-13301939D01*
X-11490000Y-13098061D01*
X-11529774Y-12898102D01*
X-11607795Y-12709744D01*
X-11721063Y-12540226D01*
X-11865226Y-12396063D01*
X-12034744Y-12282795D01*
X-12223102Y-12204774D01*
X-12254839Y-12198461D01*
X-12279774Y-12073102D01*
X-12357795Y-11884744D01*
X-12471063Y-11715226D01*
X-12615226Y-11571063D01*
X-12784744Y-11457795D01*
X-12973102Y-11379774D01*
X-13173061Y-11340000D01*
X-13376939Y-11340000D01*
X-13576898Y-11379774D01*
X-13765256Y-11457795D01*
X-13934774Y-11571063D01*
X-13978711Y-11615000D01*
X-16085198Y-11615000D01*
X-16265198Y-11435000D01*
X-16098061Y-11435000D01*
X-15898102Y-11395226D01*
X-15709744Y-11317205D01*
X-15540226Y-11203937D01*
X-15396063Y-11059774D01*
X-15282795Y-10890256D01*
X-15270262Y-10860000D01*
X-8637322Y-10860000D01*
X-8600000Y-10863676D01*
X-8562678Y-10860000D01*
X-8562667Y-10860000D01*
X-8451014Y-10849003D01*
X-8307753Y-10805546D01*
X-8175724Y-10734974D01*
X-8059999Y-10640001D01*
X-8036196Y-10610997D01*
X-7936201Y-10511002D01*
X-7388998Y-9963800D01*
X-7359999Y-9940001D01*
X-7322620Y-9894455D01*
X-7265026Y-9824277D01*
X-7194454Y-9692247D01*
X-7189923Y-9677310D01*
X-7079482Y-9710812D01*
X-6955000Y-9723072D01*
X-6305000Y-9723072D01*
X-6180518Y-9710812D01*
X-6060820Y-9674502D01*
X-5995000Y-9639320D01*
X-5929180Y-9674502D01*
X-5809482Y-9710812D01*
X-5685000Y-9723072D01*
X-5035000Y-9723072D01*
X-4910518Y-9710812D01*
X-4790820Y-9674502D01*
X-4680506Y-9615537D01*
X-4583815Y-9536185D01*
X-4504463Y-9439494D01*
X-4445498Y-9329180D01*
X-4409188Y-9209482D01*
X-4396928Y-9085000D01*
X-4396928Y-8966783D01*
X-4359774Y-9003937D01*
X-4190256Y-9117205D01*
X-4001898Y-9195226D01*
X-3801939Y-9235000D01*
X-3598061Y-9235000D01*
X-3398102Y-9195226D01*
X-3209744Y-9117205D01*
X-3040226Y-9003937D01*
X-2896063Y-8859774D01*
X-2782795Y-8690256D01*
X-2704774Y-8501898D01*
X-2665000Y-8301939D01*
X-2665000Y-8098061D01*
X-2679438Y-8025476D01*
X-1635000Y-8025476D01*
X-1635000Y-3174524D01*
X-3284857Y-3174524D01*
X-3254774Y-3101898D01*
X-3215000Y-2901939D01*
X-3215000Y-2698061D01*
X-3254774Y-2498102D01*
X-3332795Y-2309744D01*
X-3446063Y-2140226D01*
X-3590226Y-1996063D01*
X-3759744Y-1882795D01*
X-3948102Y-1804774D01*
X-4148061Y-1765000D01*
X-4351939Y-1765000D01*
X-4551898Y-1804774D01*
X-4620920Y-1833364D01*
X-4680506Y-1784463D01*
X-4790820Y-1725498D01*
X-4910518Y-1689188D01*
X-5035000Y-1676928D01*
X-5074250Y-1680000D01*
X-5233000Y-1838750D01*
X-5233000Y-2468586D01*
X-5245226Y-2498102D01*
X-5285000Y-2698061D01*
X-5285000Y-2901939D01*
X-5245226Y-3101898D01*
X-5233000Y-3131414D01*
X-5233000Y-3573000D01*
X-5213000Y-3573000D01*
X-5213000Y-3827000D01*
X-5233000Y-3827000D01*
X-5233000Y-3847000D01*
X-5487000Y-3847000D01*
X-5487000Y-3827000D01*
X-6503000Y-3827000D01*
X-6503000Y-3847000D01*
X-6757000Y-3847000D01*
X-6757000Y-3827000D01*
X-7773000Y-3827000D01*
X-7773000Y-3847000D01*
X-8027000Y-3847000D01*
X-8027000Y-3827000D01*
X-9043000Y-3827000D01*
X-9043000Y-3847000D01*
X-9297000Y-3847000D01*
X-9297000Y-3827000D01*
X-9317000Y-3827000D01*
X-9317000Y-3573000D01*
X-9297000Y-3573000D01*
X-9297000Y-1838750D01*
X-9043000Y-1838750D01*
X-9043000Y-3573000D01*
X-8027000Y-3573000D01*
X-8027000Y-1838750D01*
X-7773000Y-1838750D01*
X-7773000Y-3573000D01*
X-6757000Y-3573000D01*
X-6757000Y-1838750D01*
X-6503000Y-1838750D01*
X-6503000Y-3573000D01*
X-5487000Y-3573000D01*
X-5487000Y-1838750D01*
X-5645750Y-1680000D01*
X-5685000Y-1676928D01*
X-5809482Y-1689188D01*
X-5929180Y-1725498D01*
X-5995000Y-1760680D01*
X-6060820Y-1725498D01*
X-6180518Y-1689188D01*
X-6305000Y-1676928D01*
X-6344250Y-1680000D01*
X-6503000Y-1838750D01*
X-6757000Y-1838750D01*
X-6915750Y-1680000D01*
X-6955000Y-1676928D01*
X-7079482Y-1689188D01*
X-7199180Y-1725498D01*
X-7265000Y-1760680D01*
X-7330820Y-1725498D01*
X-7450518Y-1689188D01*
X-7575000Y-1676928D01*
X-7614250Y-1680000D01*
X-7773000Y-1838750D01*
X-8027000Y-1838750D01*
X-8185750Y-1680000D01*
X-8225000Y-1676928D01*
X-8349482Y-1689188D01*
X-8469180Y-1725498D01*
X-8535000Y-1760680D01*
X-8600820Y-1725498D01*
X-8720518Y-1689188D01*
X-8845000Y-1676928D01*
X-8884250Y-1680000D01*
X-9043000Y-1838750D01*
X-9297000Y-1838750D01*
X-9455750Y-1680000D01*
X-9495000Y-1676928D01*
X-9619482Y-1689188D01*
X-9739180Y-1725498D01*
X-9805000Y-1760680D01*
X-9870820Y-1725498D01*
X-9990518Y-1689188D01*
X-10115000Y-1676928D01*
X-10765000Y-1676928D01*
X-10889482Y-1689188D01*
X-11009180Y-1725498D01*
X-11119494Y-1784463D01*
X-11216185Y-1863815D01*
X-11295537Y-1960506D01*
X-11354502Y-2070820D01*
X-11390812Y-2190518D01*
X-11400676Y-2290667D01*
X-11510236Y-2312460D01*
X-11734992Y-2405557D01*
X-11937267Y-2540713D01*
X-12011554Y-2615000D01*
X-14333422Y-2615000D01*
X-14593466Y-2354956D01*
X-14621183Y-2321183D01*
X-14755941Y-2210589D01*
X-14909687Y-2128411D01*
X-15076510Y-2077805D01*
X-15206523Y-2065000D01*
X-15206531Y-2065000D01*
X-15250000Y-2060719D01*
X-15293469Y-2065000D01*
X-17456535Y-2065000D01*
X-17500001Y-2060719D01*
X-17543467Y-2065000D01*
X-17543477Y-2065000D01*
X-17673490Y-2077805D01*
X-17840313Y-2128411D01*
X-17994059Y-2210589D01*
X-18128817Y-2321183D01*
X-18156534Y-2354956D01*
X-18203500Y-2401922D01*
X-18203500Y-660000D01*
X-659999Y-660000D01*
X-659999Y-12276500D01*
G04 #@! TA.AperFunction,Conductor*
D22*
G36*
X-659999Y-12276500D02*
G01*
X-5214762Y-12276500D01*
X-5214762Y-15821928D01*
X-6000000Y-15821928D01*
X-6124482Y-15834188D01*
X-6244180Y-15870498D01*
X-6354494Y-15929463D01*
X-6451185Y-16008815D01*
X-6500000Y-16068296D01*
X-6548815Y-16008815D01*
X-6645506Y-15929463D01*
X-6755820Y-15870498D01*
X-6875518Y-15834188D01*
X-7000000Y-15821928D01*
X-11750000Y-15821928D01*
X-11874482Y-15834188D01*
X-11994180Y-15870498D01*
X-12104494Y-15929463D01*
X-12201185Y-16008815D01*
X-12280537Y-16105506D01*
X-12339502Y-16215820D01*
X-12365038Y-16300000D01*
X-13625198Y-16300000D01*
X-15165198Y-14760000D01*
X-14703711Y-14760000D01*
X-14659774Y-14803937D01*
X-14490256Y-14917205D01*
X-14301898Y-14995226D01*
X-14101939Y-15035000D01*
X-13898061Y-15035000D01*
X-13698102Y-14995226D01*
X-13509744Y-14917205D01*
X-13340226Y-14803937D01*
X-13196063Y-14659774D01*
X-13082795Y-14490256D01*
X-13004774Y-14301898D01*
X-12971631Y-14135275D01*
X-12826898Y-14195226D01*
X-12626939Y-14235000D01*
X-12423061Y-14235000D01*
X-12223102Y-14195226D01*
X-12034744Y-14117205D01*
X-11865226Y-14003937D01*
X-11721063Y-13859774D01*
X-11607795Y-13690256D01*
X-11529774Y-13501898D01*
X-11490000Y-13301939D01*
X-11490000Y-13098061D01*
X-11529774Y-12898102D01*
X-11607795Y-12709744D01*
X-11721063Y-12540226D01*
X-11865226Y-12396063D01*
X-12034744Y-12282795D01*
X-12223102Y-12204774D01*
X-12254839Y-12198461D01*
X-12279774Y-12073102D01*
X-12357795Y-11884744D01*
X-12471063Y-11715226D01*
X-12615226Y-11571063D01*
X-12784744Y-11457795D01*
X-12973102Y-11379774D01*
X-13173061Y-11340000D01*
X-13376939Y-11340000D01*
X-13576898Y-11379774D01*
X-13765256Y-11457795D01*
X-13934774Y-11571063D01*
X-13978711Y-11615000D01*
X-16085198Y-11615000D01*
X-16265198Y-11435000D01*
X-16098061Y-11435000D01*
X-15898102Y-11395226D01*
X-15709744Y-11317205D01*
X-15540226Y-11203937D01*
X-15396063Y-11059774D01*
X-15282795Y-10890256D01*
X-15270262Y-10860000D01*
X-8637322Y-10860000D01*
X-8600000Y-10863676D01*
X-8562678Y-10860000D01*
X-8562667Y-10860000D01*
X-8451014Y-10849003D01*
X-8307753Y-10805546D01*
X-8175724Y-10734974D01*
X-8059999Y-10640001D01*
X-8036196Y-10610997D01*
X-7936201Y-10511002D01*
X-7388998Y-9963800D01*
X-7359999Y-9940001D01*
X-7322620Y-9894455D01*
X-7265026Y-9824277D01*
X-7194454Y-9692247D01*
X-7189923Y-9677310D01*
X-7079482Y-9710812D01*
X-6955000Y-9723072D01*
X-6305000Y-9723072D01*
X-6180518Y-9710812D01*
X-6060820Y-9674502D01*
X-5995000Y-9639320D01*
X-5929180Y-9674502D01*
X-5809482Y-9710812D01*
X-5685000Y-9723072D01*
X-5035000Y-9723072D01*
X-4910518Y-9710812D01*
X-4790820Y-9674502D01*
X-4680506Y-9615537D01*
X-4583815Y-9536185D01*
X-4504463Y-9439494D01*
X-4445498Y-9329180D01*
X-4409188Y-9209482D01*
X-4396928Y-9085000D01*
X-4396928Y-8966783D01*
X-4359774Y-9003937D01*
X-4190256Y-9117205D01*
X-4001898Y-9195226D01*
X-3801939Y-9235000D01*
X-3598061Y-9235000D01*
X-3398102Y-9195226D01*
X-3209744Y-9117205D01*
X-3040226Y-9003937D01*
X-2896063Y-8859774D01*
X-2782795Y-8690256D01*
X-2704774Y-8501898D01*
X-2665000Y-8301939D01*
X-2665000Y-8098061D01*
X-2679438Y-8025476D01*
X-1635000Y-8025476D01*
X-1635000Y-3174524D01*
X-3284857Y-3174524D01*
X-3254774Y-3101898D01*
X-3215000Y-2901939D01*
X-3215000Y-2698061D01*
X-3254774Y-2498102D01*
X-3332795Y-2309744D01*
X-3446063Y-2140226D01*
X-3590226Y-1996063D01*
X-3759744Y-1882795D01*
X-3948102Y-1804774D01*
X-4148061Y-1765000D01*
X-4351939Y-1765000D01*
X-4551898Y-1804774D01*
X-4620920Y-1833364D01*
X-4680506Y-1784463D01*
X-4790820Y-1725498D01*
X-4910518Y-1689188D01*
X-5035000Y-1676928D01*
X-5074250Y-1680000D01*
X-5233000Y-1838750D01*
X-5233000Y-2468586D01*
X-5245226Y-2498102D01*
X-5285000Y-2698061D01*
X-5285000Y-2901939D01*
X-5245226Y-3101898D01*
X-5233000Y-3131414D01*
X-5233000Y-3573000D01*
X-5213000Y-3573000D01*
X-5213000Y-3827000D01*
X-5233000Y-3827000D01*
X-5233000Y-3847000D01*
X-5487000Y-3847000D01*
X-5487000Y-3827000D01*
X-6503000Y-3827000D01*
X-6503000Y-3847000D01*
X-6757000Y-3847000D01*
X-6757000Y-3827000D01*
X-7773000Y-3827000D01*
X-7773000Y-3847000D01*
X-8027000Y-3847000D01*
X-8027000Y-3827000D01*
X-9043000Y-3827000D01*
X-9043000Y-3847000D01*
X-9297000Y-3847000D01*
X-9297000Y-3827000D01*
X-9317000Y-3827000D01*
X-9317000Y-3573000D01*
X-9297000Y-3573000D01*
X-9297000Y-1838750D01*
X-9043000Y-1838750D01*
X-9043000Y-3573000D01*
X-8027000Y-3573000D01*
X-8027000Y-1838750D01*
X-7773000Y-1838750D01*
X-7773000Y-3573000D01*
X-6757000Y-3573000D01*
X-6757000Y-1838750D01*
X-6503000Y-1838750D01*
X-6503000Y-3573000D01*
X-5487000Y-3573000D01*
X-5487000Y-1838750D01*
X-5645750Y-1680000D01*
X-5685000Y-1676928D01*
X-5809482Y-1689188D01*
X-5929180Y-1725498D01*
X-5995000Y-1760680D01*
X-6060820Y-1725498D01*
X-6180518Y-1689188D01*
X-6305000Y-1676928D01*
X-6344250Y-1680000D01*
X-6503000Y-1838750D01*
X-6757000Y-1838750D01*
X-6915750Y-1680000D01*
X-6955000Y-1676928D01*
X-7079482Y-1689188D01*
X-7199180Y-1725498D01*
X-7265000Y-1760680D01*
X-7330820Y-1725498D01*
X-7450518Y-1689188D01*
X-7575000Y-1676928D01*
X-7614250Y-1680000D01*
X-7773000Y-1838750D01*
X-8027000Y-1838750D01*
X-8185750Y-1680000D01*
X-8225000Y-1676928D01*
X-8349482Y-1689188D01*
X-8469180Y-1725498D01*
X-8535000Y-1760680D01*
X-8600820Y-1725498D01*
X-8720518Y-1689188D01*
X-8845000Y-1676928D01*
X-8884250Y-1680000D01*
X-9043000Y-1838750D01*
X-9297000Y-1838750D01*
X-9455750Y-1680000D01*
X-9495000Y-1676928D01*
X-9619482Y-1689188D01*
X-9739180Y-1725498D01*
X-9805000Y-1760680D01*
X-9870820Y-1725498D01*
X-9990518Y-1689188D01*
X-10115000Y-1676928D01*
X-10765000Y-1676928D01*
X-10889482Y-1689188D01*
X-11009180Y-1725498D01*
X-11119494Y-1784463D01*
X-11216185Y-1863815D01*
X-11295537Y-1960506D01*
X-11354502Y-2070820D01*
X-11390812Y-2190518D01*
X-11400676Y-2290667D01*
X-11510236Y-2312460D01*
X-11734992Y-2405557D01*
X-11937267Y-2540713D01*
X-12011554Y-2615000D01*
X-14333422Y-2615000D01*
X-14593466Y-2354956D01*
X-14621183Y-2321183D01*
X-14755941Y-2210589D01*
X-14909687Y-2128411D01*
X-15076510Y-2077805D01*
X-15206523Y-2065000D01*
X-15206531Y-2065000D01*
X-15250000Y-2060719D01*
X-15293469Y-2065000D01*
X-17456535Y-2065000D01*
X-17500001Y-2060719D01*
X-17543467Y-2065000D01*
X-17543477Y-2065000D01*
X-17673490Y-2077805D01*
X-17840313Y-2128411D01*
X-17994059Y-2210589D01*
X-18128817Y-2321183D01*
X-18156534Y-2354956D01*
X-18203500Y-2401922D01*
X-18203500Y-660000D01*
X-659999Y-660000D01*
X-659999Y-12276500D01*
G37*
G04 #@! TD.AperFunction*
M02*
